<svg xmlns="http://www.w3.org/2000/svg" version="1.1" xmlns:xlink="http://www.w3.org/1999/xlink" xmlns:svgjs="http://svgjs.dev/svgjs" width="100%" height="100%" viewBox="0 0 1000 600"><rect width="1000" height="600" x="0" y="0" fill="#2b3252"/><g><rect width="333.3333333333333" height="333.3333333333333" rx="13.333333333333334" ry="13.333333333333334" y="223.32108688803578" fill="#ffce07" transform="matrix(0.6215848749106065,0,0,0.6215848749106065,0,57.58952112781766)" x="201.0988311767578"/><path d="M343.45617198900226 400.6686839426176L343.45617198900226 464.9877481810786L326.00481063936536 464.9877481810786L326.00481063936536 314.98775263403246L409.5262089381292 314.98775263403246L409.5262089381292 330.3671296093813L343.45617198900226 330.3671296093813L343.45617198900226 385.376855602802L405.5281545821087 385.376855602802L405.5281545821087 400.6686839426176L343.45617198900226 400.6686839426176Z " fill="#2b3252" transform="matrix(0.6215848749106065,0,0,0.6215848749106065,0,57.58952112781766)"/><path d="M691.6766048788231 463.10569225894415L678.5559741566918 463.10569225894415L632.1498089386619 340.798829236454L631.3700993260762 340.798829236454Q631.7465108631866 344.6704907610174 632.0422627852018 350.2360042025772Q632.3380147072171 355.82840418250197 632.5262204757723 362.3887195435676Q632.7144262443273 368.9490349046332 632.7144262443273 375.77821564934914L632.7144262443273 375.77821564934914L632.7144262443273 463.10569225894415L617.7655109133746 463.10569225894415L617.7655109133746 324.9088850627254L641.586983904785 324.9088850627254L685.3582683630427 439.84883657319915L686.0035452838032 439.84883657319915L730.4469932011864 324.9088850627254L754.0802604240417 324.9088850627254L754.0802604240417 463.10569225894415L738.190316250313 463.10569225894415L738.190316250313 374.62209449965314Q738.190316250313 368.49196375242786 738.3785220188682 362.3080599284725Q738.5667277874234 356.0972695661522 738.8624797094386 350.58552920132246Q739.1313450930888 345.04690229812775 739.4270970151041 340.9870350050092L739.4270970151041 340.9870350050092L738.6742739408835 340.9870350050092L691.6766048788231 463.10569225894415ZM807.960883307548 403.8477617024332L807.960883307548 463.10569225894415L791.8827333652642 463.10569225894415L791.8827333652642 324.9088850627254L868.8320061659603 324.9088850627254L868.8320061659603 339.07809078109256L807.960883307548 339.07809078109256L807.960883307548 389.7592155991611L865.1485504099521 389.7592155991611L865.1485504099521 403.8477617024332L807.960883307548 403.8477617024332ZM950.8628347176458 405.0576559288593L950.8628347176458 390.70024444193695L999.1779441595922 390.70024444193695L999.1779441595922 457.7283845859395Q988.2888961217581 461.4118403419477 976.808344239893 463.2132384124043Q965.3277923580282 464.98774994449576 951.158586639661 464.98774994449576L951.158586639661 464.98774994449576Q929.5955828709126 464.98774994449576 914.8079867701498 456.38405766768835Q900.0203906693871 447.780365390881 892.3577272353555 431.8635346787873Q884.695063801324 415.94670396669363 884.695063801324 394.0072886608348L884.695063801324 394.0072886608348Q884.695063801324 372.55183104554635 893.1643233863061 356.5812272567226Q901.6335829712885 340.6106234678989 917.6310732984772 331.76495234580625Q933.655450164031 322.9192812237137 956.1594827755554 322.9192812237137L956.1594827755554 322.9192812237137Q967.6938077341503 322.9192812237137 978.0451250046841 325.0433177545505Q988.396442275218 327.19424082375235 997.2689999356757 331.0659023483157L997.2689999356757 331.0659023483157L991.1388691884505 345.04690229812775Q983.4762057544189 341.73985807922986 974.254123095216 339.3738427031078Q965.0589269743779 337.00782732698576 955.2184539327794 337.00782732698576L955.2184539327794 337.00782732698576Q938.3068213011801 337.00782732698576 926.2347655752847 343.9983273018918Q914.1895963877542 350.9888272767978 907.8174867952438 363.75993300018376Q901.4453772027333 376.53103872356974 901.4453772027333 394.0072886608348L901.4453772027333 394.0072886608348Q901.4453772027333 411.29533282954463 907.0108906442931 424.1202116296606Q912.5764040858529 436.9182038914116 924.406480966463 444.0162500197778Q936.2096713087082 451.1142961481438 954.8420423956692 451.1142961481438L954.8420423956692 451.1142961481438Q964.1985577466972 451.1142961481438 970.920192337953 450.0119480751779Q977.6149403908438 448.936486540577 983.0997942173085 447.40395385377064L983.0997942173085 447.40395385377064L983.0997942173085 405.0576559288593L950.8628347176458 405.0576559288593ZM1098.9001149554629 463.10569225894415L1082.8219650131791 463.10569225894415L1082.8219650131791 324.9088850627254L1098.9001149554629 324.9088850627254L1098.9001149554629 463.10569225894415ZM1183.5927108052856 357.62980225295854L1183.5927108052856 357.62980225295854Q1202.0099895853268 357.62980225295854 1211.4740510898146 366.6367926052412Q1220.9112260559377 375.670669495889 1220.9112260559377 395.62048096273617L1220.9112260559377 395.62048096273617L1220.9112260559377 463.10569225894415L1205.4245799576845 463.10569225894415L1205.4245799576845 396.6690559589721Q1205.4245799576845 383.70974446703093 1199.5095415173796 377.2838617977904Q1193.5945030770745 370.85797912854986 1181.4149011977188 370.85797912854986L1181.4149011977188 370.85797912854986Q1164.207516644104 370.85797912854986 1157.217016669198 380.5909060166882Q1150.226516694292 390.3238329048266 1150.226516694292 408.84865783832754L1150.226516694292 408.84865783832754L1150.226516694292 463.10569225894415L1134.5247782891188 463.10569225894415L1134.5247782891188 359.51185993851016L1147.1883378590446 359.51185993851016L1149.5543532351667 374.43388873109797L1150.4147224628473 374.43388873109797Q1153.721766681745 368.9490349046332 1158.8302089710996 365.23869261026005Q1163.9117647220887 361.50146377752185 1170.2569877762344 359.56563301524017Q1176.6022108303798 357.62980225295854 1183.5927108052856 357.62980225295854ZM1299.3661450050754 359.51185993851016L1299.3661450050754 371.7990079713257L1273.5819547130181 371.7990079713257L1273.5819547130181 463.10569225894415L1257.8802163078449 463.10569225894415L1257.8802163078449 371.7990079713257L1239.5435971428988 371.7990079713257L1239.5435971428988 364.2438906907542L1257.8802163078449 359.0279022479397L1257.8802163078449 352.1449484264938Q1257.8802163078449 339.07809078109256 1261.751877832408 330.9045831181255Q1265.6235393569714 322.73107545515853 1272.9904508689879 318.8594139305952Q1280.384248919369 314.98775240603186 1290.950658496823 314.98775240603186L1290.950658496823 314.98775240603186Q1296.9194700138582 314.98775240603186 1301.8665930730226 316.0363274022678Q1306.8406026705516 317.05801586013865 1310.63160458002 318.40234277838977L1310.63160458002 318.40234277838977L1306.5448507485362 330.77015042630046Q1303.3453526830986 329.72157543006455 1299.3392584667104 328.8343196640188Q1295.3062777119567 327.947063897973 1291.1388642653783 327.947063897973L1291.1388642653783 327.947063897973Q1282.1587604514607 327.947063897973 1277.8569143130567 333.754556184818Q1273.5819547130181 339.562048471663 1273.5819547130181 351.9567426579386L1273.5819547130181 351.9567426579386L1273.5819547130181 359.51185993851016L1299.3661450050754 359.51185993851016ZM1407.6920080777531 411.10712706098946L1407.6920080777531 411.10712706098946Q1407.6920080777531 423.8782327843754 1404.3849638588558 433.90691159452905Q1401.0779196399576 443.90870386631764 1394.8402427392725 450.81854422612855Q1388.602565838587 457.7283845859395 1379.7568947164946 461.35806726521764Q1370.9381101327667 464.98774994449576 1359.7801967112823 464.98774994449576L1359.7801967112823 464.98774994449576Q1349.3751063640184 464.98774994449576 1340.7176410104807 461.35806726521764Q1332.0870621953081 457.7283845859395 1325.795612217893 450.81854422612855Q1319.5041622404774 443.90870386631764 1316.0626853297545 433.90691159452905Q1312.5943218806665 423.8782327843754 1312.5943218806665 411.10712706098946L1312.5943218806665 411.10712706098946Q1312.5943218806665 394.11483481429485 1318.374927629147 382.1503252418596Q1324.1286468392618 370.1858156694243 1334.8563756469057 363.8943656920089Q1345.58410445455 357.62980225295854 1360.4254736320427 357.62980225295854L1360.4254736320427 357.62980225295854Q1374.621565888775 357.62980225295854 1385.2417485429592 363.94813876873894Q1395.8888177355084 370.2933618228844 1401.7769696374485 382.23098485695465Q1407.6920080777531 394.19549442938995 1407.6920080777531 411.10712706098946ZM1328.8606775915055 411.10712706098946L1328.8606775915055 411.10712706098946Q1328.8606775915055 423.58248086236017 1332.1677218104037 432.75079044483306Q1335.4747660293015 441.91910002730594 1342.3846063891124 446.9468827015653Q1349.2944467489233 451.94777883745957 1360.1566082483923 451.94777883745957L1360.1566082483923 451.94777883745957Q1370.9381101327667 451.94777883745957 1377.8748370309427 446.9468827015653Q1384.8115639291186 441.91910002730594 1388.1186081480164 432.75079044483306Q1391.4525389052797 423.58248086236017 1391.4525389052797 411.10712706098946L1391.4525389052797 411.10712706098946Q1391.4525389052797 398.7393194130788 1388.1186081480164 389.7054425224311Q1384.8115639291186 380.6715656317833 1377.9286101076727 375.77821564934914Q1371.0187697478618 370.85797912854986 1360.0490620949327 370.85797912854986L1360.0490620949327 370.85797912854986Q1343.8902525375538 370.85797912854986 1336.3889083337122 381.53193485946406Q1328.8606775915055 392.2058905903782 1328.8606775915055 411.10712706098946Z " fill="#ffce07" transform="matrix(0.6215848749106065,0,0,0.6215848749106065,0,57.58952112781766)"/></g></svg>